<?xml version="1.0" encoding="UTF-8"?>
<svg version="1.1" viewBox="0 0 2048 2048" width="512" height="512" xmlns="http://www.w3.org/2000/svg">
<path transform="translate(0)" d="m0 0h1153l382 382 1 2v1664h-1536z" fill="#7DE8FE"/>
<path transform="translate(1665,256)" d="m0 0h254l1 1v255h128v128h-128v1147l-2 9-14 29-110 220h-4l-123-246-3-8v-1534z" fill="#49B4FE"/>
<path transform="translate(1666,1151)" d="m0 0 253 1 1 635-2 9-14 29-110 220h-4l-123-246-3-8v-638z" fill="#7DE8FE"/>
<path transform="translate(264,769)" d="m0 0h375v382h-381l-1-1v-380z" fill="#4AB5FE"/>
<path transform="translate(1152)" d="m0 0 7 6 376 376 1 2v77h-1l-1-75-2-2h-266l-113-1-1-289z" fill="#4AB5FE"/>
<path transform="translate(775,1537)" d="m0 0h504v126h-509l-1-1v-124z" fill="#4AB5FE"/>
<path transform="translate(776,1025)" d="m0 0h503v126h-508l-2-1v-124z" fill="#4AB5FE"/>
<path transform="translate(775,513)" d="m0 0h504v126h-509l-1-1v-124z" fill="#49B4FE"/>
<path transform="translate(607,1292)" d="m0 0 4 2 86 86-1 4-277 277-5 1-151-151 1-4 87-87 4 2 47 47 8 7 5 5 4-2 13-13 8-7z" fill="#4AB5FE"/>
<path transform="translate(607,268)" d="m0 0 4 2 86 86-1 4-277 277-5 1-151-151 1-4 87-87 4 2 47 47 8 7 5 5 4-2 13-13 8-7z" fill="#4AB5FE"/>
<path transform="translate(1919,672)" d="m0 0h1v1107h-1v-627h-253l-2 1v-129h255z" fill="#3278FE"/>
<path transform="translate(383,895)" d="m0 0h119l10 1v128l-78 1h-50l-1-1z" fill="#7EE9FE"/>
<path transform="translate(1919,512)" d="m0 0h129v128l-128-1-1-58z" fill="#7DE9FE"/>
<path transform="translate(1531,473)" d="m0 0h1v9l-1 2h2l1 13 1 51v1500h-8l-3-17 1-147v-138l-1-136v-981l1-87 1-24v-23l2-16h2v-5z" fill="#7AF3FE"/>
<path transform="translate(1801,512)" d="m0 0h116l2 4v124h-108l-17-1-1-1-1-51v-73l1-1z" fill="#3277FE"/>
<path transform="translate(1914,1152)" d="m0 0h5l1 635-2 9-14 29-13 26-4-1 1-5 3-4 8-20 10-22 1-14-2-76-1-99-1-377-1-55 1-9-2-7-5-2-2-7z" fill="#7AF3FE"/>
<path transform="translate(1665,1152)" d="m0 0h6l4 5-2 17v17l-2 34v22l-1 44-1 276-1 24-3 2-1-440z" fill="#79F3FE"/>
<path transform="translate(1670,1803)" d="m0 0 5 2 6 8 9 19 9 17 11 24 9 17 10 21v3h2l4 9 4 8v4h2l8 16 12 23 8 17 4 12v3l-3-1-100-200z" fill="#7AF2FE"/>
<path transform="translate(1968,513)" d="m0 0h66l3 1 2 5-2 1-17 1h-19l-34-1-9-2h-9l4-3z" fill="#7AF4FF"/>
<path transform="translate(1920,631)" d="m0 0 5 3 25 2 16-1 5-1h42l20-1 15 1v6l-128-1z" fill="#7AF3FE"/>
<path transform="translate(1820,1986)" d="m0 0h2l-1 5-27 54h-4l-15-30v-3h2l1 4 5 2 5 5h7l7-9 6-8 8-14z" fill="#7AF3FE"/>
<path transform="translate(1666,1790)" d="m0 0 4 1v5l-3 2-2-6z" fill="#7AF3FE"/>
</svg>
